<svg xmlns="http://www.w3.org/2000/svg" version="1.1" xmlns:xlink="http://www.w3.org/1999/xlink" width="1500" height="1500" viewBox="0 0 1500 1500"><rect width="1500" height="1500" x="0" y="0" id="background" stroke="transparent" fill="#111111"></rect><svg xml:space="preserve" width="1000" height="1000" data-version="2" data-id="lg_y6DdPcn3xpIlURcCzh" viewBox="0 0 402 174" x="250" y="250"><rect width="100%" height="100%" fill="transparent"></rect><path fill="#fff" d="M201.845 73.559v-48.75h9.42v15.6h14.09v-15.6h9.42v48.75h-9.42v-24.37h-14.09v24.37Z"></path><rect width="32.93" height="48.75" x="-16.46" y="-24.38" fill="none" rx="0" ry="0" transform="translate(218.81 49.68)"></rect><path fill="#fff" d="M260.395 74.649q-4.11 0-7.5-1.3-3.39-1.3-5.85-3.66-2.46-2.36-3.79-5.61-1.33-3.25-1.33-7.09 0-3.69 1.3-6.8 1.3-3.12 3.63-5.39 2.33-2.28 5.42-3.55 3.08-1.27 6.66-1.27 4.82 0 8.61 2.19 3.79 2.2 5.99 5.99 2.19 3.79 2.19 8.61v3.3h-19.82q-1.36 0-2.6-.16-1.25-.16-2.5-.38.44 2.17 1.74 3.82t3.36 2.57q2.05.93 4.71.93 3.09 0 5.55-1.25 2.47-1.25 4.04-3.09l2.05 8.45q-2.43 1.84-5.49 2.76-3.06.93-6.37.93m-9.8-20.8q1.3-.28 2.62-.44 1.33-.16 2.69-.16h5.74q1.51 0 2.87.11 1.35.11 2.54.38-.54-1.95-1.67-3.36-1.14-1.41-2.79-2.17-1.66-.76-3.77-.76-2 0-3.66.79-1.65.78-2.81 2.19-1.17 1.41-1.76 3.42"></path><rect width="33.8" height="34.67" x="-16.9" y="-17.34" fill="none" rx="0" ry="0" transform="translate(259.32 57.81)"></rect><path fill="#fff" d="m279.035 89.809 10.83-21.77-13.27-26.98h10.4l5.74 11.92q.76 1.62 1.33 2.95.57 1.33.94 2.57.44-1.24 1.03-2.57.6-1.33 1.41-2.95l5.85-11.92h10.02l-24.16 48.75Z"></path><rect width="36.72" height="48.75" x="-18.36" y="-24.38" fill="none" rx="0" ry="0" transform="translate(295.45 65.93)"></rect><path fill="#fff" d="M214.355 153.969q-2.98 0-5.77-.76-2.79-.76-5.09-2.03-2.3-1.27-3.93-2.84l2.66-10.84q1.3 2.23 3.3 3.96 2.01 1.73 4.39 2.73 2.38 1.01 4.77 1.01 2 0 3.41-.73 1.41-.74 2.19-2.01.79-1.27.79-2.84 0-1.9-.9-3.14-.89-1.25-2.11-2.06-1.22-.82-2.14-1.25l-5.74-2.87q-2.49-1.25-4.77-2.95-2.27-1.71-3.71-4.25-1.43-2.55-1.43-6.29 0-3.08 1.05-5.6 1.06-2.52 3.06-4.34 2.01-1.81 4.8-2.81 2.79-1.01 6.25-1.01 4.34 0 7.72 1.39 3.39 1.38 5.5 2.95l-2.49 10.56q-1.46-1.9-3.31-3.28-1.84-1.38-3.84-2.16-2.01-.79-4.01-.79-1.79 0-3.01.62-1.21.63-1.86 1.68-.65 1.06-.65 2.41 0 1.25.56 2.22.57.98 1.66 1.74 1.08.76 2.54 1.51l5.8 2.88q1.46.7 3.19 1.81 1.74 1.11 3.36 2.79 1.63 1.68 2.66 4.04 1.03 2.35 1.03 5.6 0 4.23-1.95 7.61-1.95 3.39-5.5 5.36-3.55 1.98-8.48 1.98"></path><rect width="30.72" height="50.92" x="-15.36" y="-25.46" fill="none" rx="0" ry="0" transform="translate(215.43 129)"></rect><path fill="#fff" d="M235.965 152.889v-32.5h8.45v5.58q1.68-2.82 4.25-4.36 2.58-1.55 6.04-1.55l2.06 8.34q-.54-.16-1.13-.24-.6-.08-1.2-.08-2.7 0-4.74 1.19-2.03 1.19-3.16 3.44-1.14 2.25-1.14 5.5v14.68Z"></path><rect width="20.8" height="32.83" x="-10.4" y="-16.41" fill="none" rx="0" ry="0" transform="translate(246.87 136.97)"></rect><path fill="#fff" d="M273.455 153.969q-3.42 0-6.45-1.65-3.03-1.65-4.9-4.82-1.87-3.17-1.87-7.67v-19.44h9.42v18.2q0 2.71 1.66 4.82 1.65 2.11 4.63 2.11 1.62 0 3.06-.78 1.43-.79 2.33-2.31.89-1.51.89-3.73v-18.31h9.43v32.5h-8.56v-3.41q-1.74 2.16-4.25 3.33-2.52 1.16-5.39 1.16"></path><rect width="31.42" height="33.58" x="-15.71" y="-16.79" fill="none" rx="0" ry="0" transform="translate(276.44 137.68)"></rect><path fill="#fff" d="M309.475 153.969q-3.31 0-6.69-1.08-3.39-1.09-5.28-2.93l2.33-8.88q1.57 2.17 4.36 3.79 2.79 1.63 5.76 1.63 2.01 0 2.9-.76.9-.76.9-1.84 0-1.25-.92-1.82-.93-.57-1.9-.95l-4.55-1.73q-1.52-.6-3.47-1.62-1.95-1.03-3.38-2.93-1.44-1.9-1.44-4.98 0-2.82 1.41-5.2 1.41-2.39 4.09-3.88 2.68-1.49 6.47-1.49 3.52 0 6.58 1.2 3.06 1.19 4.47 2.65l-2.16 8.56q-1.25-1.57-2.79-2.68-1.55-1.11-3.2-1.68-1.65-.57-3.17-.57-1.73 0-2.54.7-.82.71-.82 1.63 0 .7.57 1.38.57.68 1.93 1.22l4.22 1.57q1.84.65 3.93 1.73 2.08 1.09 3.55 3.01 1.46 1.92 1.46 5.28 0 3.14-1.6 5.55-1.6 2.41-4.44 3.77-2.85 1.35-6.58 1.35"></path><rect width="24.59" height="34.67" x="-12.29" y="-17.34" fill="none" rx="0" ry="0" transform="translate(310.3 137.13)"></rect><path fill="#fff" d="M327.505 152.889v-52h9.43v21.94q1.73-1.74 3.98-2.63 2.25-.9 4.79-.9 3.47 0 6.48 1.66 3 1.65 4.87 4.82 1.87 3.17 1.87 7.66v19.45h-9.42v-18.2q0-1.84-.74-3.41-.73-1.58-2.13-2.55-1.41-.98-3.42-.98-1.62 0-3.06.74-1.43.73-2.33 2.22-.89 1.49-.89 3.87v18.31Z"></path><rect width="31.42" height="52" x="-15.71" y="-26" fill="none" rx="0" ry="0" transform="translate(343.71 127.39)"></rect><path fill="#fff" d="M365.425 152.889v-52h9.43v21.94q1.73-1.74 3.98-2.63 2.25-.9 4.79-.9 3.47 0 6.47 1.66 3.01 1.65 4.88 4.82 1.87 3.17 1.87 7.66v19.45h-9.43v-18.2q0-1.84-.73-3.41-.73-1.58-2.14-2.55-1.41-.98-3.41-.98-1.63 0-3.06.74-1.44.73-2.33 2.22-.89 1.49-.89 3.87v18.31Z"></path><rect width="31.42" height="52" x="-15.71" y="-26" fill="none" rx="0" ry="0" transform="translate(381.63 127.39)"></rect><path fill="#fff" d="M57.208 1.547v1.33H4.156v-1.33zm0 9.31v1.994H4.156v-1.995zm0 9.307v2.66H4.156v-2.66zm0 9.31v3.324H4.156v-3.324zm0 9.308v3.989H4.156v-3.99zm0 9.31v4.653H4.156v-4.654zm0 9.31v5.316H4.156v-5.317zm0 9.307v5.984H4.156v-5.984zm0 9.308v6.648H4.156v-6.648zm0 9.31v7.313H4.156v-7.313zm0 9.308v7.98H4.156v-7.98zm0 9.31v8.642H4.156v-8.643zm115.976-49.346h-1.33V1.547h1.33zm-9.31 0h-1.994V1.547h1.995zm-9.307 0h-2.66V1.547h2.66zm-9.31 0h-3.324V1.547h3.324zm-9.308 0h-3.989V1.547h3.99zm-9.31 0h-4.652V1.547h4.654zm-9.31 0h-5.314V1.547h5.319zm-9.307 0h-5.984V1.547h5.984zm-9.308 0h-6.648V1.547h6.648zm-9.31 0h-7.313V1.547h7.313zm-9.308 0h-7.98V1.547h7.98zm-9.31 0h-8.642V1.547h8.643zm49.346 115.977v-1.33h53.052v1.33zm0-9.31v-1.995h53.052v1.995zm0-9.308v-2.66h53.052v2.66zm0-9.31v-3.324h53.052v3.324zm0-9.308v-3.989h53.052v3.99zm0-9.31v-4.652h53.052v4.654zm0-9.31v-5.314h53.052v5.319zm0-9.307v-5.984h53.052v5.984zm0-9.308v-6.648h53.052v6.648zm0-9.31v-7.313h53.052v7.313zm0-9.308v-7.98h53.052v7.98zm0-9.31v-8.642h53.052v8.643zM4.156 117.524h1.33v53.053h-1.33zm9.31 0h1.994v53.053h-1.995zm9.307 0h2.66v53.053h-2.66zm9.31 0h3.324v53.053h-3.324zm9.308 0h3.989v53.053h-3.99zm9.31 0h4.653v53.053H50.7zm9.31 0h5.316v53.053H60.01zm9.307 0h5.984v53.053h-5.984zm9.308 0h6.648v53.053h-6.648zm9.31 0h7.313v53.053h-7.313zm9.308 0h7.98v53.053h-7.98zm9.31 0h8.642v53.053h-8.643z"></path></svg></svg>